<?xml version="1.0" encoding="UTF-8"?>
<svg xmlns="http://www.w3.org/2000/svg" xmlns:xlink="http://www.w3.org/1999/xlink" viewBox="0 0 48 48" width="48px" height="48px">
<g id="surface103533791">
<path style=" stroke:none;fill-rule:nonzero;fill:rgb(41.176471%,25.490198%,66.666669%);fill-opacity:1;" d="M 9.5 6 C 7.019531 6 5 8.019531 5 10.5 C 5 12.980469 7.019531 15 9.5 15 C 11.980469 15 14 12.980469 14 10.5 C 14 8.019531 11.980469 6 9.5 6 Z M 18.5 9 C 17.960938 8.992188 17.457031 9.277344 17.183594 9.742188 C 16.910156 10.210938 16.910156 10.789062 17.183594 11.257812 C 17.457031 11.722656 17.960938 12.007812 18.5 12 L 41.5 12 C 42.039062 12.007812 42.542969 11.722656 42.816406 11.257812 C 43.089844 10.789062 43.089844 10.210938 42.816406 9.742188 C 42.542969 9.277344 42.039062 8.992188 41.5 9 Z M 9.5 19.5 C 7.019531 19.5 5 21.519531 5 24 C 5 26.480469 7.019531 28.5 9.5 28.5 C 11.980469 28.5 14 26.480469 14 24 C 14 21.519531 11.980469 19.5 9.5 19.5 Z M 18.5 22.5 C 17.671875 22.5 17 23.171875 17 24 C 17 24.828125 17.671875 25.5 18.5 25.5 L 26.148438 25.5 C 27.636719 24.109375 29.445312 23.070312 31.464844 22.5 Z M 35 24 C 28.925781 24 24 28.925781 24 35 C 24 41.074219 28.925781 46 35 46 C 41.074219 46 46 41.074219 46 35 C 46 28.925781 41.074219 24 35 24 Z M 30 29 C 30.253906 29 30.511719 29.097656 30.707031 29.292969 L 35 33.585938 L 39.292969 29.292969 C 39.683594 28.902344 40.316406 28.902344 40.707031 29.292969 C 41.097656 29.683594 41.097656 30.316406 40.707031 30.707031 L 36.414062 35 L 40.707031 39.292969 C 41.097656 39.683594 41.097656 40.316406 40.707031 40.707031 C 40.511719 40.902344 40.257812 41 40 41 C 39.742188 41 39.488281 40.902344 39.292969 40.707031 L 35 36.414062 L 30.707031 40.707031 C 30.511719 40.902344 30.257812 41 30 41 C 29.742188 41 29.488281 40.902344 29.292969 40.707031 C 28.902344 40.316406 28.902344 39.683594 29.292969 39.292969 L 33.585938 35 L 29.292969 30.707031 C 28.902344 30.316406 28.902344 29.683594 29.292969 29.292969 C 29.488281 29.097656 29.746094 29 30 29 Z M 9.5 33 C 7.019531 33 5 35.019531 5 37.5 C 5 39.980469 7.019531 42 9.5 42 C 11.980469 42 14 39.980469 14 37.5 C 14 35.019531 11.980469 33 9.5 33 Z M 18.5 36 C 17.671875 36 17 36.671875 17 37.5 C 17 38.328125 17.671875 39 18.5 39 L 22.632812 39 C 22.324219 38.042969 22.128906 37.039062 22.050781 36 Z M 18.5 36 "/>
</g>
</svg>
