<svg id="fieldRemove" xmlns="http://www.w3.org/2000/svg" xmlns:xlink="http://www.w3.org/1999/xlink" viewBox="0 0 50 50">
<g id="surface106212294">
<path style=" stroke:none;fill-rule:nonzero;fill:currentColor;fill-opacity:1;" d="M 9.894531 6.25 C 7.3125 6.25 5.207031 8.351562 5.207031 10.9375 C 5.207031 13.523438 7.3125 15.625 9.894531 15.625 C 12.480469 15.625 14.582031 13.523438 14.582031 10.9375 C 14.582031 8.351562 12.480469 6.25 9.894531 6.25 Z M 19.269531 9.375 C 18.707031 9.367188 18.183594 9.664062 17.898438 10.148438 C 17.613281 10.636719 17.613281 11.238281 17.898438 11.726562 C 18.183594 12.210938 18.707031 12.507812 19.269531 12.5 L 43.230469 12.5 C 43.792969 12.507812 44.316406 12.210938 44.601562 11.726562 C 44.886719 11.238281 44.886719 10.636719 44.601562 10.148438 C 44.316406 9.664062 43.792969 9.367188 43.230469 9.375 Z M 9.894531 20.3125 C 7.3125 20.3125 5.207031 22.414062 5.207031 25 C 5.207031 27.585938 7.3125 29.6875 9.894531 29.6875 C 12.480469 29.6875 14.582031 27.585938 14.582031 25 C 14.582031 22.414062 12.480469 20.3125 9.894531 20.3125 Z M 19.269531 23.4375 C 18.40625 23.4375 17.707031 24.136719 17.707031 25 C 17.707031 25.863281 18.40625 26.5625 19.269531 26.5625 L 27.234375 26.5625 C 28.789062 25.117188 30.675781 24.03125 32.773438 23.4375 Z M 36.457031 25 C 30.128906 25 25 30.128906 25 36.457031 C 25 42.785156 30.128906 47.917969 36.457031 47.917969 C 42.785156 47.917969 47.917969 42.785156 47.917969 36.457031 C 47.917969 30.128906 42.785156 25 36.457031 25 Z M 31.25 30.207031 C 31.515625 30.207031 31.78125 30.308594 31.988281 30.511719 L 36.457031 34.984375 L 40.929688 30.511719 C 41.335938 30.105469 41.996094 30.105469 42.402344 30.511719 C 42.808594 30.921875 42.808594 31.578125 42.402344 31.988281 L 37.929688 36.457031 L 42.402344 40.929688 C 42.808594 41.335938 42.808594 41.996094 42.402344 42.402344 C 42.199219 42.605469 41.933594 42.707031 41.667969 42.707031 C 41.398438 42.707031 41.132812 42.605469 40.929688 42.402344 L 36.457031 37.929688 L 31.988281 42.402344 C 31.785156 42.605469 31.515625 42.707031 31.25 42.707031 C 30.984375 42.707031 30.714844 42.605469 30.511719 42.402344 C 30.105469 41.996094 30.105469 41.335938 30.511719 40.929688 L 34.984375 36.457031 L 30.511719 31.988281 C 30.105469 31.578125 30.105469 30.921875 30.511719 30.511719 C 30.71875 30.308594 30.984375 30.207031 31.25 30.207031 Z M 9.894531 34.375 C 7.3125 34.375 5.207031 36.476562 5.207031 39.0625 C 5.207031 41.648438 7.3125 43.75 9.894531 43.75 C 12.480469 43.75 14.582031 41.648438 14.582031 39.0625 C 14.582031 36.476562 12.480469 34.375 9.894531 34.375 Z M 19.269531 37.5 C 18.40625 37.5 17.707031 38.199219 17.707031 39.0625 C 17.707031 39.925781 18.40625 40.625 19.269531 40.625 L 23.578125 40.625 C 23.253906 39.628906 23.050781 38.582031 22.96875 37.5 Z M 19.269531 37.5 "/>
</g>
</svg>
