<?xml version="1.0" encoding="UTF-8"?>
<svg xmlns="http://www.w3.org/2000/svg" xmlns:xlink="http://www.w3.org/1999/xlink" viewBox="0 0 96 96" width="96px" height="96px">
<g id="surface105152292">
<path style=" stroke:none;fill-rule:nonzero;fill:rgb(41.176471%,25.490198%,66.666669%);fill-opacity:1;" d="M 30.3125 22.375 C 16.179688 22.375 4.6875 33.871094 4.6875 48 C 4.6875 62.128906 16.179688 73.625 30.3125 73.625 C 35.996094 73.628906 41.519531 71.734375 46.003906 68.238281 C 40.527344 62.929688 37.4375 55.628906 37.441406 48 C 37.4375 40.371094 40.527344 33.070312 46.003906 27.761719 C 41.519531 24.265625 35.996094 22.371094 30.3125 22.375 Z M 65.6875 22.375 C 60.003906 22.371094 54.480469 24.265625 49.996094 27.761719 C 55.46875 33.070312 58.558594 40.371094 58.558594 48 C 58.558594 55.628906 55.46875 62.929688 49.996094 68.238281 C 54.480469 71.734375 60.003906 73.628906 65.6875 73.625 C 79.820312 73.625 91.3125 62.128906 91.3125 48 C 91.3125 33.871094 79.820312 22.375 65.6875 22.375 Z M 48 29.480469 C 47.214844 30.230469 46.476562 31.03125 45.792969 31.875 L 50.207031 31.875 C 49.523438 31.03125 48.785156 30.230469 48 29.480469 Z M 43.921875 34.5 C 42.964844 36.035156 42.171875 37.671875 41.5625 39.375 L 54.4375 39.375 C 53.828125 37.671875 53.035156 36.035156 52.078125 34.5 Z M 40.777344 42 C 40.394531 43.597656 40.164062 45.230469 40.09375 46.875 L 55.90625 46.875 C 55.835938 45.230469 55.605469 43.597656 55.222656 42 Z M 40.113281 49.5 C 40.167969 50.507812 40.285156 51.507812 40.460938 52.5 L 55.539062 52.5 C 55.714844 51.507812 55.832031 50.507812 55.886719 49.5 Z M 41.074219 55.125 C 41.566406 56.8125 42.230469 58.449219 43.054688 60 L 52.945312 60 C 53.769531 58.449219 54.433594 56.8125 54.925781 55.125 Z M 44.664062 62.625 C 45.644531 64.03125 46.761719 65.335938 48 66.519531 C 49.238281 65.335938 50.355469 64.03125 51.335938 62.625 Z M 44.664062 62.625 "/>
</g>
</svg>
