<?xml version="1.0" encoding="UTF-8"?>
<svg id="join" xmlns="http://www.w3.org/2000/svg" xmlns:xlink="http://www.w3.org/1999/xlink" viewBox="0 0 50 50">
<g id="surface106224398">
<path style=" stroke:none;fill-rule:nonzero;fill:currentColor;fill-opacity:1;" d="M 15.789062 11.65625 C 8.425781 11.65625 2.441406 17.640625 2.441406 25 C 2.441406 32.359375 8.429688 38.34375 15.785156 38.34375 C 18.746094 38.347656 21.625 37.359375 23.960938 35.542969 C 21.109375 32.777344 19.5 28.972656 19.5 25 C 19.5 21.027344 21.109375 17.222656 23.960938 14.457031 C 21.625 12.640625 18.75 11.652344 15.789062 11.65625 Z M 34.214844 11.65625 C 31.253906 11.652344 28.375 12.640625 26.039062 14.457031 C 28.890625 17.226562 30.5 21.027344 30.5 25 C 30.5 28.972656 28.890625 32.773438 26.039062 35.542969 C 28.375 37.359375 31.253906 38.347656 34.214844 38.34375 C 41.570312 38.34375 47.558594 32.359375 47.558594 25 C 47.558594 17.640625 41.570312 11.65625 34.214844 11.65625 Z M 25 15.355469 C 24.589844 15.746094 24.207031 16.160156 23.851562 16.601562 L 26.148438 16.601562 C 25.792969 16.160156 25.410156 15.746094 25 15.355469 Z M 22.875 17.96875 C 22.378906 18.769531 21.964844 19.621094 21.648438 20.507812 L 28.351562 20.507812 C 28.035156 19.621094 27.621094 18.769531 27.125 17.96875 Z M 21.238281 21.875 C 21.039062 22.707031 20.917969 23.558594 20.882812 24.414062 L 29.117188 24.414062 C 29.082031 23.558594 28.960938 22.707031 28.761719 21.875 Z M 20.890625 25.78125 C 20.921875 26.304688 20.984375 26.828125 21.074219 27.34375 L 28.925781 27.34375 C 29.015625 26.828125 29.078125 26.304688 29.109375 25.78125 Z M 21.394531 28.710938 C 21.648438 29.589844 21.996094 30.441406 22.425781 31.25 L 27.574219 31.25 C 28.003906 30.441406 28.351562 29.589844 28.605469 28.710938 Z M 23.261719 32.617188 C 23.773438 33.347656 24.355469 34.027344 25 34.644531 C 25.644531 34.027344 26.226562 33.347656 26.738281 32.617188 Z M 23.261719 32.617188 "/>
</g>
</svg>
