<svg id="logo" width="78" height="28" viewBox="0 0 78 28" fill="none" xmlns="http://www.w3.org/2000/svg">
<g clip-path="url(#clip0_53_90)">
<g clip-path="url(#clip1_53_90)">
<g clip-path="url(#clip2_53_90)">
<g clip-path="url(#clip3_53_90)">
<g clip-path="url(#clip4_53_90)">
<g clip-path="url(#clip5_53_90)">
<g clip-path="url(#clip6_53_90)">
<g clip-path="url(#clip7_53_90)">
<path d="M40.6729 2.90189C42.5081 2.90189 44.1085 3.30426 45.4742 4.10901C46.8399 4.91806 47.8962 6.06923 48.6431 7.56253C49.3899 9.06013 49.7633 10.8202 49.7633 12.8429V15.1022C49.7633 17.1248 49.3899 18.8828 48.6431 20.3761C47.8962 21.8737 46.8399 23.0248 45.4742 23.8296C44.1085 24.6386 42.5081 25.0432 40.6729 25.0432H33.0549V2.90189H40.6729ZM40.6729 5.77444H36.1918V22.1706H40.6729C42.5721 22.1706 44.0402 21.5724 45.0773 20.3761C46.1101 19.184 46.6265 17.426 46.6265 15.1022V12.8429C46.6265 10.562 46.1208 8.81268 45.1093 7.5948C44.0936 6.38123 42.6148 5.77444 40.6729 5.77444ZM69.5766 2.57913C71.9879 2.57913 73.8807 3.11706 75.2549 4.19293C76.6334 5.26879 77.3226 6.79651 77.3226 8.7761V9.16341H74.1858V8.67927C74.1858 7.64645 73.7697 6.85031 72.9375 6.29086C72.1053 5.73141 71.0063 5.45169 69.6406 5.45169C68.1255 5.45169 66.9455 5.70344 66.1005 6.20694C65.2597 6.71475 64.8393 7.44203 64.8393 8.38879C64.8393 9.09886 65.0783 9.67983 65.5563 10.1317C66.0386 10.5836 66.6361 10.9386 67.3488 11.1968C68.0658 11.455 69.0538 11.7455 70.3128 12.0682C71.9345 12.4986 73.2469 12.9182 74.2498 13.327C75.2527 13.7358 76.1106 14.3491 76.8233 15.1667C77.5403 15.9844 77.8988 17.071 77.8988 18.4266C77.8988 20.8365 77.1669 22.5945 75.703 23.7005C74.2434 24.8108 72.1906 25.3659 69.5446 25.3659C66.8985 25.3659 64.8436 24.8 63.3797 23.6682C61.9202 22.5407 61.1904 20.9011 61.1904 18.7494L61.2224 18.1038H64.3592L64.3272 18.7816C64.3272 20.0296 64.7903 20.9592 65.7164 21.5703C66.6467 22.1857 67.9335 22.4934 69.5766 22.4934C71.177 22.4934 72.4403 22.1964 73.3664 21.6025C74.2968 21.013 74.762 20.2018 74.762 19.1689C74.762 18.3513 74.5102 17.6886 74.0066 17.1807C73.5072 16.6772 72.8777 16.2856 72.1181 16.0059C71.3627 15.7262 70.3341 15.4142 69.0324 15.0699C67.432 14.6396 66.1517 14.2307 65.1914 13.8434C64.2312 13.4561 63.4096 12.8579 62.7268 12.0489C62.0439 11.2441 61.7025 10.1855 61.7025 8.87293C61.7025 6.74272 62.4174 5.1612 63.8471 4.12837C65.2768 3.09554 67.1866 2.57913 69.5766 2.57913Z" fill="white"/>
</g>
</g>
</g>
</g>
<g clip-path="url(#clip8_53_90)">
<g clip-path="url(#clip9_53_90)">
<path d="M13.8632 0C6.2103 0 0.0065918 6.25554 0.0065918 13.9723C0.0065918 18.3759 2.02887 22.3011 5.18565 24.8623L0.0065918 27.945H13.8632C21.516 27.945 27.7201 21.6895 27.7201 13.9723C27.7201 6.25554 21.5153 0 13.8632 0V0ZM13.8628 26.7018H4.60542L7.53573 24.986C3.77205 22.7822 1.23923 18.677 1.23923 13.9723C1.23923 6.94208 6.89079 1.24329 13.8628 1.24329C20.8348 1.24329 26.4867 6.94208 26.4867 13.9723C26.4867 21.0023 20.8348 26.7018 13.8628 26.7018V26.7018ZM14.7922 14.6309C14.6285 15.8945 14.017 17.0556 13.0707 17.9001L12.5431 17.1136C13.245 16.4589 13.7063 15.5838 13.8518 14.6309H14.7922ZM15.3738 14.0863H13.3601C13.3224 15.2891 12.723 16.3471 11.8206 17.0089L12.9491 18.691C14.3862 17.6646 15.3347 15.9882 15.3738 14.0863ZM9.63551 8.72528C12.2576 8.72528 14.4644 10.7336 14.7925 13.3041H13.8521C13.6997 12.2879 13.1898 11.3609 12.4157 10.6924C11.6415 10.0239 10.6547 9.65843 9.63551 9.66277C8.72629 9.66243 7.84073 9.955 7.10799 10.4978C6.37525 11.0406 5.83364 11.8053 5.56216 12.6803L4.63102 12.5394C4.93724 11.4396 5.59236 10.4712 6.49614 9.78235C7.39993 9.09353 8.50262 8.72224 9.63551 8.72528ZM9.63551 8.18071C6.79586 8.18071 4.43868 10.2607 3.97755 12.9922L5.96818 13.293C6.28461 11.5388 7.80451 10.2081 9.63516 10.2081C11.6553 10.2081 13.2964 11.8281 13.3597 13.8494H15.3735C15.3095 10.7078 12.7663 8.18071 9.63551 8.18071V8.18071ZM4.43654 13.8555L5.3652 13.996C5.37942 16.3586 7.2897 18.2762 9.63587 18.2762C10.264 18.2761 10.8844 18.1357 11.4523 17.865L11.9792 18.6508C11.2527 19.0215 10.4497 19.2143 9.63551 19.2137C6.76813 19.2137 4.43512 16.8612 4.43512 13.9695C4.43512 13.9318 4.43548 13.8938 4.43654 13.8555M3.94306 13.2302C3.91159 13.4754 3.89556 13.7223 3.89506 13.9695C3.89506 17.1666 6.46522 19.7582 9.63587 19.7582C10.785 19.7582 11.8544 19.4162 12.7521 18.8301L11.6247 17.1491C11.0301 17.5295 10.3404 17.7314 9.63622 17.7313C7.57626 17.7313 5.90561 16.0467 5.90561 13.9695C5.90561 13.8211 5.91627 13.6751 5.93298 13.531L3.94306 13.2302V13.2302ZM22.7494 8.70771H17.3474C17.2757 8.70771 17.207 8.679 17.1563 8.62791C17.1057 8.57681 17.0772 8.50751 17.0772 8.43525C17.0772 8.36298 17.1057 8.29368 17.1563 8.24259C17.207 8.19149 17.2757 8.16278 17.3474 8.16278H22.7494C22.821 8.16278 22.8898 8.19149 22.9404 8.24259C22.9911 8.29368 23.0196 8.36298 23.0196 8.43525C23.0196 8.50751 22.9911 8.57681 22.9404 8.62791C22.8898 8.679 22.821 8.70771 22.7494 8.70771ZM22.7494 10.0191H17.3474C17.2757 10.0191 17.207 9.99041 17.1563 9.93932C17.1057 9.88822 17.0772 9.81892 17.0772 9.74666C17.0772 9.67439 17.1057 9.60509 17.1563 9.55399C17.207 9.5029 17.2757 9.47419 17.3474 9.47419H22.7494C22.821 9.47419 22.8898 9.5029 22.9404 9.55399C22.9911 9.60509 23.0196 9.67439 23.0196 9.74666C23.0196 9.81892 22.9911 9.88822 22.9404 9.93932C22.8898 9.99041 22.821 10.0191 22.7494 10.0191ZM22.7494 12.6416H17.3474C17.2775 12.639 17.2113 12.6092 17.1627 12.5584C17.1141 12.5076 17.087 12.4398 17.087 12.3693C17.087 12.2987 17.1141 12.2309 17.1627 12.1802C17.2113 12.1294 17.2775 12.0996 17.3474 12.097H22.7494C22.7857 12.0957 22.8218 12.1017 22.8558 12.1148C22.8897 12.1279 22.9206 12.1478 22.9467 12.1732C22.9729 12.1986 22.9937 12.2291 23.0079 12.2627C23.0221 12.2964 23.0294 12.3327 23.0294 12.3693C23.0294 12.4059 23.0221 12.4421 23.0079 12.4758C22.9937 12.5095 22.9729 12.54 22.9467 12.5654C22.9206 12.5908 22.8897 12.6107 22.8558 12.6238C22.8218 12.6368 22.7857 12.6429 22.7494 12.6416V12.6416ZM22.7494 11.3305H17.3474C17.2757 11.3305 17.207 11.3018 17.1563 11.2507C17.1057 11.1996 17.0772 11.1303 17.0772 11.0581C17.0772 10.9858 17.1057 10.9165 17.1563 10.8654C17.207 10.8143 17.2757 10.7856 17.3474 10.7856H22.7494C22.821 10.7856 22.8898 10.8143 22.9404 10.8654C22.9911 10.9165 23.0196 10.9858 23.0196 11.0581C23.0196 11.1303 22.9911 11.1996 22.9404 11.2507C22.8898 11.3018 22.821 11.3305 22.7494 11.3305ZM22.4937 19.8027H17.603C17.4637 19.8025 17.3301 19.7466 17.2315 19.6472C17.133 19.5478 17.0776 19.413 17.0775 19.2725V14.1064C17.0777 13.966 17.1332 13.8313 17.2317 13.732C17.3302 13.6326 17.4637 13.5767 17.603 13.5766H22.4941C22.6335 13.5767 22.7671 13.6325 22.8657 13.7318C22.9643 13.8312 23.0197 13.9659 23.0199 14.1064V19.2725C23.0197 19.4131 22.9641 19.5478 22.8655 19.6472C22.7669 19.7466 22.6332 19.8025 22.4937 19.8027V19.8027ZM22.4795 14.1064L17.6027 14.1215L17.6169 19.2725L22.4795 19.2581V14.1064V14.1064ZM22.1286 15.1956C22.1286 15.4246 21.9448 15.6096 21.718 15.6096C21.702 15.6096 21.6881 15.6021 21.6732 15.6007L21.1808 16.7934C21.2689 16.8691 21.3272 16.978 21.3272 17.1035C21.3272 17.2133 21.284 17.3187 21.207 17.3963C21.13 17.474 21.0255 17.5176 20.9166 17.5176C20.8077 17.5176 20.7032 17.474 20.6262 17.3963C20.5492 17.3187 20.506 17.2133 20.506 17.1035C20.506 17.0594 20.5184 17.02 20.5305 16.9802L19.546 16.3363C19.4738 16.4001 19.3825 16.4417 19.2794 16.4417C19.2627 16.4417 19.2484 16.4342 19.2324 16.4317L18.6334 17.8668C18.7265 17.9424 18.7894 18.0539 18.7894 18.1841C18.7894 18.2658 18.7653 18.3458 18.7201 18.4138C18.675 18.4817 18.611 18.5347 18.536 18.566C18.461 18.5973 18.3786 18.6054 18.299 18.5894C18.2195 18.5735 18.1464 18.5341 18.089 18.4762C18.0317 18.4184 17.9926 18.3447 17.9768 18.2645C17.9609 18.1843 17.969 18.1011 18 18.0255C18.031 17.95 18.0836 17.8853 18.151 17.8399C18.2184 17.7944 18.2977 17.7701 18.3788 17.77C18.3955 17.77 18.4094 17.7775 18.4257 17.7789L19.0252 16.3453C18.9772 16.3076 18.9382 16.2594 18.9112 16.2044C18.8842 16.1494 18.8698 16.089 18.8691 16.0277C18.8691 15.9179 18.9123 15.8126 18.9893 15.735C19.0663 15.6574 19.1707 15.6138 19.2795 15.6138C19.3884 15.6138 19.4928 15.6574 19.5698 15.735C19.6468 15.8126 19.69 15.9179 19.69 16.0277C19.69 16.0692 19.6779 16.1072 19.6662 16.1452L20.6553 16.7909C20.7267 16.7303 20.8156 16.6898 20.9162 16.6898C20.9372 16.6898 20.9546 16.6984 20.9746 16.7016L21.4652 15.5143C21.4166 15.4767 21.3772 15.4285 21.3499 15.3733C21.3226 15.318 21.3082 15.2573 21.3077 15.1956C21.3077 15.0858 21.3509 14.9805 21.4279 14.9029C21.5049 14.8253 21.6093 14.7817 21.7181 14.7817C21.827 14.7817 21.9314 14.8253 22.0084 14.9029C22.0854 14.9805 22.1286 15.0858 22.1286 15.1956V15.1956Z" fill="#D9C7F6"/>
</g>
</g>
</g>
</g>
</g>
</g>
<defs>
<clipPath id="clip0_53_90">
<rect width="78" height="28" fill="white"/>
</clipPath>
<clipPath id="clip1_53_90">
<rect width="78" height="28" fill="white" transform="translate(-0.0473022 -0.0274658)"/>
</clipPath>
<clipPath id="clip2_53_90">
<rect width="77.8922" height="27.945" fill="white" transform="translate(0.0065918)"/>
</clipPath>
<clipPath id="clip3_53_90">
<rect width="77.8922" height="27.945" fill="white" transform="translate(0.0065918)"/>
</clipPath>
<clipPath id="clip4_53_90">
<rect width="44.8438" height="22.7868" fill="white" transform="translate(33.0549 2.57913)"/>
</clipPath>
<clipPath id="clip5_53_90">
<rect width="44.8438" height="22.7868" fill="white" transform="translate(33.0549 2.57913)"/>
</clipPath>
<clipPath id="clip6_53_90">
<rect width="44.8438" height="22.7868" fill="white" transform="translate(33.0549 2.57913)"/>
</clipPath>
<clipPath id="clip7_53_90">
<rect width="44.8438" height="22.7868" fill="white" transform="translate(33.0549 2.57913)"/>
</clipPath>
<clipPath id="clip8_53_90">
<rect width="27.7135" height="27.945" fill="white" transform="translate(0.0065918)"/>
</clipPath>
<clipPath id="clip9_53_90">
<rect width="27.7135" height="27.945" fill="white" transform="translate(0.0065918)"/>
</clipPath>
</defs>
</svg>
