<svg id="rename" class="h-6 w-6" viewBox="0 0 11 13" fill="none" xmlns="http://www.w3.org/2000/svg">
<path d="M10.9291 11.7139L6.34514 0.571346C6.20475 0.225463 5.86955 0 5.49996 0C5.13038 0 4.79518 0.225463 4.65479 0.571346L0.0708063 11.7139C-0.123927 12.1872 0.0967631 12.7309 0.564158 12.928C1.03344 13.1261 1.5692 12.9012 1.76287 12.4283L2.67394 10.214H8.32656L9.23763 12.4283C9.384 12.7846 9.72525 12.9999 10.0842 12.9999C10.2015 12.9999 10.3211 12.9768 10.4366 12.9279C10.9033 12.7295 11.1239 12.1869 10.9291 11.7139ZM3.41139 8.35662L5.49996 3.34248L7.56276 8.35662H3.41139Z" fill="currentColor"/>
</svg>
